<svg width="223" height="216" viewBox="0 0 223 216" fill="none" xmlns="http://www.w3.org/2000/svg">
<path fill-rule="evenodd" clip-rule="evenodd" d="M154.753 117.328C162.5 119.693 169.571 124.504 174.699 131.562C187.239 148.822 183.413 172.98 166.153 185.52C148.893 198.06 124.735 194.233 112.195 176.974C107.067 169.916 104.676 161.704 104.821 153.606L104.678 153.71L104.876 152.118C104.975 150.363 105.193 148.616 105.529 146.891L110.3 108.643L146.898 115.793C149.557 116.032 152.187 116.545 154.744 117.325L154.754 117.327L154.753 117.328Z" fill="#FAE0BE"/>
<path fill-rule="evenodd" clip-rule="evenodd" d="M115.504 151.994C115.649 160.093 113.258 168.304 108.13 175.362C95.59 192.622 71.4324 196.448 54.1725 183.908C36.9127 171.368 33.0865 147.211 45.6265 129.951C50.7544 122.893 57.8249 118.081 65.5721 115.717L65.4287 115.613L67.0035 115.31C68.704 114.861 70.4328 114.529 72.1768 114.314L110.027 107.033L114.537 144.05C115.131 146.652 115.455 149.312 115.504 151.985L115.505 151.995L115.504 151.994Z" fill="#FAE0BE"/>
<path fill-rule="evenodd" clip-rule="evenodd" d="M70.4068 125.377C62.7493 128.018 54.2009 128.281 45.9038 125.585C25.6137 118.993 14.5096 97.1997 21.1023 76.9095C27.695 56.6193 49.4879 45.5153 69.778 52.108C78.0751 54.8039 84.8361 60.0415 89.4791 66.6787L89.5339 66.5102L90.3087 67.9143C91.2607 69.393 92.1111 70.9344 92.8538 72.5269L111.475 106.274L77.6639 122.002C75.3723 123.371 72.9425 124.502 70.4157 125.374L70.4064 125.379L70.4068 125.377Z" fill="#FAE0BE"/>
<path fill-rule="evenodd" clip-rule="evenodd" d="M81.7858 74.2607C76.9082 67.7939 74.0162 59.7453 74.0162 51.0212C74.0162 29.6869 91.3111 12.392 112.645 12.392C133.98 12.392 151.275 29.6869 151.275 51.0212C151.275 59.7453 148.383 67.7939 143.505 74.2607H143.682L142.586 75.4315C141.474 76.7938 140.271 78.0789 138.986 79.2774L112.645 107.416L87.238 80.1197C85.228 78.3632 83.4016 76.4019 81.7914 74.2682L81.7845 74.2607H81.7858Z" fill="#FAE0BE"/>
<path fill-rule="evenodd" clip-rule="evenodd" d="M133.912 69.2858C138.555 62.6486 145.316 57.411 153.613 54.7151C173.904 48.1224 195.697 59.2264 202.289 79.5166C208.882 99.8068 197.778 121.6 177.488 128.192C169.191 130.888 160.642 130.625 152.985 127.984L153.039 128.153L151.587 127.472C149.948 126.836 148.354 126.088 146.817 125.237L111.916 108.88L130.025 76.2817C131.074 73.8273 132.375 71.4842 133.907 69.2935L133.912 69.2846L133.912 69.2858Z" fill="#FAE0BE"/>
<path d="M108.458 82.6525C108.717 79.5327 113.283 79.5327 113.542 82.6525C113.754 85.2069 117.178 85.8881 118.352 83.6092C119.785 80.8259 124.003 82.5734 123.049 85.5547C122.267 87.9958 125.17 89.9357 127.126 88.2792C129.515 86.2561 132.744 89.4851 130.721 91.874C129.064 93.8301 131.004 96.7333 133.445 95.9515C136.427 94.9966 138.174 99.2155 135.391 100.648C133.112 101.822 133.793 105.246 136.347 105.458C139.467 105.717 139.467 110.283 136.347 110.542C133.793 110.754 133.112 114.178 135.391 115.352C138.174 116.785 136.427 121.003 133.445 120.049C131.004 119.267 129.064 122.17 130.721 124.126C132.744 126.515 129.515 129.744 127.126 127.721C125.17 126.064 122.267 128.004 123.048 130.445C124.003 133.427 119.785 135.174 118.352 132.391C117.178 130.112 113.754 130.793 113.542 133.347C113.283 136.467 108.717 136.467 108.458 133.347C108.246 130.793 104.822 130.112 103.648 132.391C102.215 135.174 97.9966 133.427 98.9515 130.445C99.7333 128.004 96.8301 126.064 94.874 127.721C92.4851 129.744 89.2561 126.515 91.2792 124.126C92.9357 122.17 90.9958 119.267 88.5547 120.049C85.5734 121.003 83.8259 116.785 86.6092 115.352C88.8881 114.178 88.2069 110.754 85.6525 110.542C82.5327 110.283 82.5327 105.717 85.6525 105.458C88.2069 105.246 88.8881 101.822 86.6092 100.648C83.8259 99.2155 85.5734 94.9966 88.5547 95.9515C90.9958 96.7333 92.9357 93.8301 91.2792 91.874C89.2561 89.4851 92.4851 86.2561 94.874 88.2792C96.8301 89.9357 99.7333 87.9958 98.9515 85.5547C97.9966 82.5734 102.215 80.8259 103.648 83.6092C104.822 85.8881 108.246 85.2069 108.458 82.6525Z" fill="#F4B442"/>
<path d="M140.699 78.3015L111.001 108" stroke="#DC8433" stroke-width="2"/>
<circle cx="140.699" cy="78.3015" r="6" transform="rotate(45 140.699 78.3015)" fill="#F4B442"/>
<path d="M149.803 91.9273L111 108" stroke="#DC8433" stroke-width="2"/>
<circle cx="149.804" cy="91.9273" r="6" transform="rotate(67.5 149.804 91.9273)" fill="#F4B442"/>
<path d="M153 108L111 108" stroke="#DC8433" stroke-width="2"/>
<circle cx="153" cy="108" r="6" transform="rotate(90 153 108)" fill="#F4B442"/>
<path d="M149.803 124.073L111 108" stroke="#DC8433" stroke-width="2"/>
<circle cx="149.803" cy="124.073" r="6" transform="rotate(112.5 149.803 124.073)" fill="#F4B442"/>
<path d="M140.699 137.698L111.001 108" stroke="#DC8433" stroke-width="2"/>
<circle cx="140.698" cy="137.698" r="6" transform="rotate(135 140.698 137.698)" fill="#F4B442"/>
<path d="M127.072 146.803L111 108" stroke="#DC8433" stroke-width="2"/>
<circle cx="127.073" cy="146.803" r="6" transform="rotate(157.5 127.073 146.803)" fill="#F4B442"/>
<path d="M111 150L111 108" stroke="#DC8433" stroke-width="2"/>
<circle cx="111" cy="150" r="6" transform="rotate(180 111 150)" fill="#F4B442"/>
<path d="M94.9277 146.803L111 108" stroke="#DC8433" stroke-width="2"/>
<circle cx="94.9286" cy="146.803" r="6" transform="rotate(-157.5 94.9286 146.803)" fill="#F4B442"/>
<path d="M81.3027 137.698L111.001 108" stroke="#DC8433" stroke-width="2"/>
<circle cx="81.3027" cy="137.699" r="6" transform="rotate(-135 81.3027 137.699)" fill="#F4B442"/>
<path d="M72.1992 124.073L111.002 108" stroke="#DC8433" stroke-width="2"/>
<circle cx="72.1978" cy="124.073" r="6" transform="rotate(-112.5 72.1978 124.073)" fill="#F4B442"/>
<path d="M69 108L111 108" stroke="#DC8433" stroke-width="2"/>
<circle cx="69" cy="108" r="6" transform="rotate(-90 69 108)" fill="#F4B442"/>
<path d="M72.1992 91.9273L111.002 108" stroke="#DC8433" stroke-width="2"/>
<circle cx="72.1988" cy="91.9273" r="6" transform="rotate(-67.5 72.1988 91.9273)" fill="#F4B442"/>
<path d="M81.3027 78.3015L111.001 108" stroke="#DC8433" stroke-width="2"/>
<circle cx="81.3036" cy="78.3015" r="6" transform="rotate(-45 81.3036 78.3015)" fill="#F4B442"/>
<path d="M94.9297 69.1971L111.002 108" stroke="#DC8433" stroke-width="2"/>
<circle cx="94.9296" cy="69.1971" r="6" transform="rotate(-22.5 94.9296 69.1971)" fill="#F4B442"/>
<path d="M111.002 66V108" stroke="#DC8433" stroke-width="2"/>
<circle cx="111.002" cy="66" r="6" fill="#F4B442"/>
<path d="M127.072 69.197L111 108" stroke="#DC8433" stroke-width="2"/>
<circle cx="127.071" cy="69.197" r="6" transform="rotate(22.5 127.071 69.197)" fill="#F4B442"/>
</svg>
